<svg width="256" height="256" viewBox="0 0 256 256" fill="none" xmlns="http://www.w3.org/2000/svg">
  <rect width="256" height="256" rx="36" fill="url(#bg)"/>
  <circle cx="128" cy="94" r="41" fill="#F3D7B9"/>
  <path d="M82 206C86 170 104 145 128 145C152 145 170 170 174 206" fill="#5B21B6"/>
  <path d="M86 83C88 53 108 38 128 38C148 38 168 53 170 83L149 71H107L86 83Z" fill="#7C3AED"/>
  <path d="M74 53L128 22L182 53L164 72H92L74 53Z" fill="#F0B34A"/>
  <path d="M58 184C86 168 109 158 128 158C147 158 170 168 198 184" stroke="#F5D0FE" stroke-width="11" stroke-linecap="round"/>
  <defs>
    <linearGradient id="bg" x1="26" y1="18" x2="228" y2="236" gradientUnits="userSpaceOnUse">
      <stop stop-color="#B45309"/>
      <stop offset="1" stop-color="#7C3AED"/>
    </linearGradient>
  </defs>
</svg>
