<svg width="256" height="256" viewBox="0 0 256 256" fill="none" xmlns="http://www.w3.org/2000/svg">
  <rect width="256" height="256" rx="36" fill="url(#bg)"/>
  <circle cx="128" cy="96" r="40" fill="#F3D8C0"/>
  <path d="M82 206C86 170 104 145 128 145C152 145 170 170 174 206" fill="#261544"/>
  <path d="M86 82C89 53 107 39 128 39C149 39 167 53 170 82C158 72 144 67 128 67C112 67 98 72 86 82Z" fill="#0F172A"/>
  <circle cx="98" cy="49" r="7" fill="#D8B4FE"/>
  <circle cx="158" cy="41" r="5" fill="#D8B4FE" fill-opacity="0.85"/>
  <circle cx="176" cy="58" r="4" fill="#D8B4FE" fill-opacity="0.72"/>
  <path d="M60 184C83 173 106 168 128 168C150 168 173 173 196 184" stroke="#E9D5FF" stroke-width="10" stroke-linecap="round"/>
  <defs>
    <linearGradient id="bg" x1="22" y1="18" x2="230" y2="238" gradientUnits="userSpaceOnUse">
      <stop stop-color="#9333EA"/>
      <stop offset="1" stop-color="#0F172A"/>
    </linearGradient>
  </defs>
</svg>
