<svg width="256" height="256" viewBox="0 0 256 256" fill="none" xmlns="http://www.w3.org/2000/svg">
  <rect width="256" height="256" rx="36" fill="url(#bg)"/>
  <rect x="42" y="42" width="172" height="172" rx="24" fill="#0F172A" fill-opacity="0.16" stroke="#DDD6FE" stroke-opacity="0.24"/>
  <circle cx="128" cy="98" r="40" fill="#F2D8BE"/>
  <path d="M82 206C87 169 105 145 128 145C151 145 169 169 174 206" fill="#3B1361"/>
  <path d="M86 84C90 58 106 43 128 43C150 43 166 58 170 84C158 74 144 69 128 69C112 69 98 74 86 84Z" fill="#1E3A8A"/>
  <path d="M73 148L128 118L183 148" stroke="#DDD6FE" stroke-width="10" stroke-linecap="round" stroke-linejoin="round"/>
  <path d="M73 180L128 150L183 180" stroke="#DDD6FE" stroke-width="10" stroke-linecap="round" stroke-linejoin="round" stroke-opacity="0.65"/>
  <defs>
    <linearGradient id="bg" x1="24" y1="20" x2="230" y2="238" gradientUnits="userSpaceOnUse">
      <stop stop-color="#1D4ED8"/>
      <stop offset="1" stop-color="#581C87"/>
    </linearGradient>
  </defs>
</svg>
