<svg width="256" height="256" viewBox="0 0 256 256" fill="none" xmlns="http://www.w3.org/2000/svg">
  <rect width="256" height="256" fill="#F59E0B"/>
  <ellipse cx="192" cy="268" rx="118" ry="102" fill="#7F1D1D"/>
  <ellipse cx="66" cy="112" rx="27" ry="19" fill="#7F1D1D" transform="rotate(-24 66 112)"/>
  <ellipse cx="234" cy="112" rx="27" ry="19" fill="#7F1D1D" transform="rotate(24 234 112)"/>
  <circle cx="150" cy="138" r="80" fill="#7F1D1D"/>
  <ellipse cx="104" cy="60" rx="15" ry="32" fill="#FDE68A" transform="rotate(-28 104 60)"/>
  <ellipse cx="196" cy="60" rx="15" ry="32" fill="#FDE68A" transform="rotate(28 196 60)"/>
  <circle cx="150" cy="58" r="17" fill="#FDE68A"/>
  <circle cx="114" cy="126" r="10" fill="#F59E0B"/>
  <circle cx="186" cy="126" r="10" fill="#F59E0B"/>
  <ellipse cx="150" cy="178" rx="47" ry="32" fill="#FDE68A"/>
  <ellipse cx="134" cy="174" rx="7" ry="9" fill="#7F1D1D"/>
  <ellipse cx="166" cy="174" rx="7" ry="9" fill="#7F1D1D"/>
</svg>
