<svg width="256" height="256" viewBox="0 0 256 256" fill="none" xmlns="http://www.w3.org/2000/svg">
  <rect width="256" height="256" rx="36" fill="url(#bg)"/>
  <circle cx="128" cy="98" r="42" fill="#F6D7A8"/>
  <path d="M80 206C86 167 104 144 128 144C152 144 170 167 176 206" fill="#6B1E1E"/>
  <path d="M92 73C103 49 126 43 149 51C165 57 175 71 176 92C161 80 144 75 127 75C114 75 102 79 92 73Z" fill="#3E1414"/>
  <path d="M80 55L128 26L176 55L158 71H98L80 55Z" fill="#F2C45A"/>
  <rect x="72" y="182" width="112" height="38" rx="19" fill="#F7E4A6" fill-opacity="0.16" stroke="#F7E4A6" stroke-opacity="0.35"/>
  <defs>
    <linearGradient id="bg" x1="34" y1="24" x2="226" y2="236" gradientUnits="userSpaceOnUse">
      <stop stop-color="#F59E0B"/>
      <stop offset="1" stop-color="#7F1D1D"/>
    </linearGradient>
  </defs>
</svg>
